<svg width="48" height="48" viewBox="0 0 500 500" fill="none" xmlns="http://www.w3.org/2000/svg">
<path d="M412.75 343C412.75 346.083 411.525 349.04 409.345 351.22C407.165 353.4 404.208 354.625 401.125 354.625H354.625V401.125C354.625 404.208 353.4 407.165 351.22 409.345C349.04 411.525 346.083 412.75 343 412.75C339.917 412.75 336.96 411.525 334.78 409.345C332.6 407.165 331.375 404.208 331.375 401.125V354.625H157C153.917 354.625 150.96 353.4 148.78 351.22C146.6 349.04 145.375 346.083 145.375 343V168.625H98.875C95.7919 168.625 92.835 167.4 90.6549 165.22C88.4748 163.04 87.25 160.083 87.25 157C87.25 153.917 88.4748 150.96 90.6549 148.78C92.835 146.6 95.7919 145.375 98.875 145.375H145.375V98.875C145.375 95.7919 146.6 92.835 148.78 90.6549C150.96 88.4748 153.917 87.25 157 87.25C160.083 87.25 163.04 88.4748 165.22 90.6549C167.4 92.835 168.625 95.7919 168.625 98.875V331.375H401.125C404.208 331.375 407.165 332.6 409.345 334.78C411.525 336.96 412.75 339.917 412.75 343ZM203.5 168.625H331.375V296.5C331.375 299.583 332.6 302.54 334.78 304.72C336.96 306.9 339.917 308.125 343 308.125C346.083 308.125 349.04 306.9 351.22 304.72C353.4 302.54 354.625 299.583 354.625 296.5V157C354.625 153.917 353.4 150.96 351.22 148.78C349.04 146.6 346.083 145.375 343 145.375H203.5C200.417 145.375 197.46 146.6 195.28 148.78C193.1 150.96 191.875 153.917 191.875 157C191.875 160.083 193.1 163.04 195.28 165.22C197.46 167.4 200.417 168.625 203.5 168.625Z" fill="#F5F5F5"/>
</svg>
